<mxfile host="app.diagrams.net" agent="Mozilla/5.0 (Windows NT 10.0; Win64; x64) AppleWebKit/537.36 (KHTML, like Gecko) Chrome/137.0.0.0 Safari/537.36" version="27.1.1">
  <diagram name="Página-1" id="yyK6GB8vzSzf9NdtjsYG">
    <mxGraphModel dx="872" dy="479" grid="1" gridSize="10" guides="1" tooltips="1" connect="1" arrows="1" fold="1" page="1" pageScale="1" pageWidth="827" pageHeight="1169" math="0" shadow="0">
      <root>
        <mxCell id="0" />
        <mxCell id="1" parent="0" />
        <mxCell id="6vk5qEpbiUs9_99Ks2rn-5" value="" style="endArrow=none;html=1;rounded=0;entryX=0.46;entryY=1.1;entryDx=0;entryDy=0;entryPerimeter=0;exitX=0.02;exitY=0.433;exitDx=0;exitDy=0;exitPerimeter=0;" parent="1" target="6vk5qEpbiUs9_99Ks2rn-20" edge="1" source="OBsJ4Kkz1t2WXACGnjXM-2">
          <mxGeometry width="50" height="50" relative="1" as="geometry">
            <mxPoint x="180" y="1080" as="sourcePoint" />
            <mxPoint x="179.5" y="190" as="targetPoint" />
            <Array as="points">
              <mxPoint x="179.5" y="340" />
            </Array>
          </mxGeometry>
        </mxCell>
        <mxCell id="6vk5qEpbiUs9_99Ks2rn-15" value="" style="endArrow=none;html=1;rounded=0;exitX=0.56;exitY=-0.067;exitDx=0;exitDy=0;exitPerimeter=0;entryX=0.52;entryY=1.067;entryDx=0;entryDy=0;entryPerimeter=0;" parent="1" source="6vk5qEpbiUs9_99Ks2rn-24" edge="1" target="6vk5qEpbiUs9_99Ks2rn-21">
          <mxGeometry width="50" height="50" relative="1" as="geometry">
            <mxPoint x="255" y="480" as="sourcePoint" />
            <mxPoint x="260" y="110" as="targetPoint" />
            <Array as="points">
              <mxPoint x="260" y="280" />
            </Array>
          </mxGeometry>
        </mxCell>
        <mxCell id="6vk5qEpbiUs9_99Ks2rn-20" value="src/" style="text;html=1;align=center;verticalAlign=middle;resizable=0;points=[];autosize=1;strokeColor=none;fillColor=none;fontStyle=1" parent="1" vertex="1">
          <mxGeometry x="160" y="20" width="40" height="30" as="geometry" />
        </mxCell>
        <mxCell id="6vk5qEpbiUs9_99Ks2rn-21" value="main/" style="text;html=1;align=center;verticalAlign=middle;resizable=0;points=[];autosize=1;strokeColor=none;fillColor=none;fontStyle=1" parent="1" vertex="1">
          <mxGeometry x="235" y="50" width="50" height="30" as="geometry" />
        </mxCell>
        <mxCell id="6vk5qEpbiUs9_99Ks2rn-24" value="test/" style="text;html=1;align=center;verticalAlign=middle;resizable=0;points=[];autosize=1;strokeColor=none;fillColor=none;fontStyle=1" parent="1" vertex="1">
          <mxGeometry x="230" y="1060" width="50" height="30" as="geometry" />
        </mxCell>
        <mxCell id="6vk5qEpbiUs9_99Ks2rn-25" value="java/" style="text;html=1;align=center;verticalAlign=middle;resizable=0;points=[];autosize=1;strokeColor=none;fillColor=none;fontStyle=1" parent="1" vertex="1">
          <mxGeometry x="340" y="70" width="50" height="30" as="geometry" />
        </mxCell>
        <mxCell id="6vk5qEpbiUs9_99Ks2rn-27" value="" style="endArrow=none;html=1;rounded=0;entryX=0.167;entryY=0.733;entryDx=0;entryDy=0;entryPerimeter=0;" parent="1" target="6vk5qEpbiUs9_99Ks2rn-21" edge="1">
          <mxGeometry width="50" height="50" relative="1" as="geometry">
            <mxPoint x="180" y="72" as="sourcePoint" />
            <mxPoint x="440" y="240" as="targetPoint" />
          </mxGeometry>
        </mxCell>
        <mxCell id="6vk5qEpbiUs9_99Ks2rn-29" value="" style="endArrow=none;html=1;rounded=0;entryX=0.167;entryY=0.667;entryDx=0;entryDy=0;entryPerimeter=0;" parent="1" target="6vk5qEpbiUs9_99Ks2rn-25" edge="1">
          <mxGeometry width="50" height="50" relative="1" as="geometry">
            <mxPoint x="260" y="90" as="sourcePoint" />
            <mxPoint x="440" y="240" as="targetPoint" />
          </mxGeometry>
        </mxCell>
        <mxCell id="6vk5qEpbiUs9_99Ks2rn-30" value="escapeRoom/" style="text;html=1;align=center;verticalAlign=middle;resizable=0;points=[];autosize=1;strokeColor=none;fillColor=none;fontStyle=1" parent="1" vertex="1">
          <mxGeometry x="430" y="150" width="100" height="30" as="geometry" />
        </mxCell>
        <mxCell id="6vk5qEpbiUs9_99Ks2rn-31" value="" style="endArrow=none;html=1;rounded=0;" parent="1" edge="1">
          <mxGeometry width="50" height="50" relative="1" as="geometry">
            <mxPoint x="340" y="1040" as="sourcePoint" />
            <mxPoint x="339.5" y="80" as="targetPoint" />
          </mxGeometry>
        </mxCell>
        <mxCell id="6vk5qEpbiUs9_99Ks2rn-33" value="console/" style="text;html=1;align=center;verticalAlign=middle;resizable=0;points=[];autosize=1;strokeColor=none;fillColor=none;fontStyle=1" parent="1" vertex="1">
          <mxGeometry x="544" y="180" width="70" height="30" as="geometry" />
        </mxCell>
        <mxCell id="6vk5qEpbiUs9_99Ks2rn-36" value="services/&lt;div&gt;&lt;br&gt;&lt;div&gt;&lt;br&gt;&lt;/div&gt;&lt;/div&gt;" style="text;html=1;align=center;verticalAlign=middle;resizable=0;points=[];autosize=1;strokeColor=none;fillColor=none;fontStyle=1" parent="1" vertex="1">
          <mxGeometry x="544" y="800" width="70" height="60" as="geometry" />
        </mxCell>
        <mxCell id="6vk5qEpbiUs9_99Ks2rn-38" value="RoomHnadler.java" style="text;html=1;align=center;verticalAlign=middle;resizable=0;points=[];autosize=1;strokeColor=none;fillColor=none;" parent="1" vertex="1">
          <mxGeometry x="595" y="900" width="120" height="30" as="geometry" />
        </mxCell>
        <mxCell id="6vk5qEpbiUs9_99Ks2rn-39" value="TicketHandler.java" style="text;html=1;align=center;verticalAlign=middle;resizable=0;points=[];autosize=1;strokeColor=none;fillColor=none;" parent="1" vertex="1">
          <mxGeometry x="595" y="860" width="120" height="30" as="geometry" />
        </mxCell>
        <mxCell id="6vk5qEpbiUs9_99Ks2rn-40" value="PlayerHandler.java" style="text;html=1;align=center;verticalAlign=middle;resizable=0;points=[];autosize=1;strokeColor=none;fillColor=none;" parent="1" vertex="1">
          <mxGeometry x="599" y="818" width="120" height="30" as="geometry" />
        </mxCell>
        <mxCell id="6vk5qEpbiUs9_99Ks2rn-41" value="model/" style="text;html=1;align=center;verticalAlign=middle;resizable=0;points=[];autosize=1;strokeColor=none;fillColor=none;fontStyle=1" parent="1" vertex="1">
          <mxGeometry x="549" y="270" width="60" height="30" as="geometry" />
        </mxCell>
        <mxCell id="6vk5qEpbiUs9_99Ks2rn-43" value="" style="endArrow=none;html=1;rounded=0;" parent="1" edge="1">
          <mxGeometry width="50" height="50" relative="1" as="geometry">
            <mxPoint x="340" y="150" as="sourcePoint" />
            <mxPoint x="370" y="150" as="targetPoint" />
          </mxGeometry>
        </mxCell>
        <mxCell id="6vk5qEpbiUs9_99Ks2rn-44" value="Room.java" style="text;html=1;align=center;verticalAlign=middle;resizable=0;points=[];autosize=1;strokeColor=none;fillColor=none;" parent="1" vertex="1">
          <mxGeometry x="590" y="300" width="80" height="30" as="geometry" />
        </mxCell>
        <mxCell id="6vk5qEpbiUs9_99Ks2rn-45" value="Decoration.java" style="text;html=1;align=center;verticalAlign=middle;resizable=0;points=[];autosize=1;strokeColor=none;fillColor=none;" parent="1" vertex="1">
          <mxGeometry x="590" y="340" width="110" height="30" as="geometry" />
        </mxCell>
        <mxCell id="6vk5qEpbiUs9_99Ks2rn-46" value="Hint.java" style="text;html=1;align=center;verticalAlign=middle;resizable=0;points=[];autosize=1;strokeColor=none;fillColor=none;" parent="1" vertex="1">
          <mxGeometry x="590" y="380" width="70" height="30" as="geometry" />
        </mxCell>
        <mxCell id="6vk5qEpbiUs9_99Ks2rn-47" value="#entrada aplicación" style="text;html=1;align=center;verticalAlign=middle;resizable=0;points=[];autosize=1;strokeColor=none;fillColor=none;" parent="1" vertex="1">
          <mxGeometry x="788" y="220" width="130" height="30" as="geometry" />
        </mxCell>
        <mxCell id="6vk5qEpbiUs9_99Ks2rn-48" value="dao/" style="text;html=1;align=center;verticalAlign=middle;resizable=0;points=[];autosize=1;strokeColor=none;fillColor=none;fontStyle=1" parent="1" vertex="1">
          <mxGeometry x="549" y="420" width="50" height="30" as="geometry" />
        </mxCell>
        <mxCell id="6vk5qEpbiUs9_99Ks2rn-49" value="patterns/" style="text;html=1;align=center;verticalAlign=middle;resizable=0;points=[];autosize=1;strokeColor=none;fillColor=none;fontStyle=1" parent="1" vertex="1">
          <mxGeometry x="549" y="940" width="70" height="30" as="geometry" />
        </mxCell>
        <mxCell id="6vk5qEpbiUs9_99Ks2rn-50" value="HintDaoImplementatiom" style="text;html=1;align=left;verticalAlign=middle;resizable=0;points=[];autosize=1;strokeColor=none;fillColor=none;" parent="1" vertex="1">
          <mxGeometry x="639" y="530" width="150" height="30" as="geometry" />
        </mxCell>
        <mxCell id="6vk5qEpbiUs9_99Ks2rn-51" value="DecorationDaoImplementatiom" style="text;html=1;align=left;verticalAlign=middle;resizable=0;points=[];autosize=1;strokeColor=none;fillColor=none;" parent="1" vertex="1">
          <mxGeometry x="639" y="560" width="190" height="30" as="geometry" />
        </mxCell>
        <mxCell id="6vk5qEpbiUs9_99Ks2rn-52" value="CertificateDaoImplementatiom" style="text;html=1;align=center;verticalAlign=middle;resizable=0;points=[];autosize=1;strokeColor=none;fillColor=none;" parent="1" vertex="1">
          <mxGeometry x="631" y="650" width="180" height="30" as="geometry" />
        </mxCell>
        <mxCell id="6vk5qEpbiUs9_99Ks2rn-53" value="PlayerDaoImplementatiom" style="text;html=1;align=left;verticalAlign=middle;resizable=0;points=[];autosize=1;strokeColor=none;fillColor=none;" parent="1" vertex="1">
          <mxGeometry x="641" y="620" width="160" height="30" as="geometry" />
        </mxCell>
        <mxCell id="6vk5qEpbiUs9_99Ks2rn-54" value="RoomDaoImplementatiom" style="text;html=1;align=left;verticalAlign=middle;resizable=0;points=[];autosize=1;strokeColor=none;fillColor=none;" parent="1" vertex="1">
          <mxGeometry x="641" y="590" width="160" height="30" as="geometry" />
        </mxCell>
        <mxCell id="6vk5qEpbiUs9_99Ks2rn-57" value="HintDaoImplementatiom" style="text;html=1;align=center;verticalAlign=middle;resizable=0;points=[];autosize=1;strokeColor=none;fillColor=none;" parent="1" vertex="1">
          <mxGeometry x="631" y="680" width="150" height="30" as="geometry" />
        </mxCell>
        <mxCell id="6vk5qEpbiUs9_99Ks2rn-58" value="EventDaoImplementatiom" style="text;html=1;align=center;verticalAlign=middle;resizable=0;points=[];autosize=1;strokeColor=none;fillColor=none;" parent="1" vertex="1">
          <mxGeometry x="636" y="740" width="160" height="30" as="geometry" />
        </mxCell>
        <mxCell id="6vk5qEpbiUs9_99Ks2rn-59" value="EscapeRoomDaoImplementatiom" style="text;html=1;align=center;verticalAlign=middle;resizable=0;points=[];autosize=1;strokeColor=none;fillColor=none;" parent="1" vertex="1">
          <mxGeometry x="631" y="710" width="200" height="30" as="geometry" />
        </mxCell>
        <mxCell id="6vk5qEpbiUs9_99Ks2rn-60" value="#POR QUE TENEMOS ESCAPEDAO??" style="text;html=1;align=center;verticalAlign=middle;resizable=0;points=[];autosize=1;strokeColor=none;fillColor=none;" parent="1" vertex="1">
          <mxGeometry x="918" y="740" width="240" height="30" as="geometry" />
        </mxCell>
        <mxCell id="6vk5qEpbiUs9_99Ks2rn-61" value="&amp;nbsp; &amp;nbsp; &amp;nbsp; &amp;nbsp; &amp;nbsp; &amp;nbsp; &amp;nbsp; &amp;nbsp; &amp;nbsp; &amp;nbsp; &amp;nbsp; &amp;nbsp; &amp;nbsp; &amp;nbsp; &amp;nbsp; &amp;nbsp; &amp;nbsp; &amp;nbsp; &amp;nbsp; &amp;nbsp; &amp;nbsp; &amp;nbsp; &amp;nbsp; &amp;nbsp; &amp;nbsp; &amp;nbsp; &amp;nbsp; &amp;nbsp; #VAMOS A REGISTRAR LOS EVENTOS??, ENTENDIA QUE NO" style="text;html=1;align=center;verticalAlign=middle;resizable=0;points=[];autosize=1;strokeColor=none;fillColor=none;" parent="1" vertex="1">
          <mxGeometry x="730" y="710" width="560" height="30" as="geometry" />
        </mxCell>
        <mxCell id="OBsJ4Kkz1t2WXACGnjXM-1" value="docker-compose.yml&lt;div&gt;&lt;br&gt;&lt;/div&gt;" style="text;html=1;align=center;verticalAlign=middle;resizable=0;points=[];autosize=1;strokeColor=none;fillColor=none;fontStyle=1" vertex="1" parent="1">
          <mxGeometry x="180" y="1090" width="130" height="40" as="geometry" />
        </mxCell>
        <mxCell id="OBsJ4Kkz1t2WXACGnjXM-2" value="Dockerfile.dev" style="text;html=1;align=center;verticalAlign=middle;resizable=0;points=[];autosize=1;strokeColor=none;fillColor=none;fontStyle=1" vertex="1" parent="1">
          <mxGeometry x="180" y="1139" width="100" height="30" as="geometry" />
        </mxCell>
        <mxCell id="OBsJ4Kkz1t2WXACGnjXM-3" value="resources/" style="text;html=1;align=center;verticalAlign=middle;resizable=0;points=[];autosize=1;strokeColor=none;fillColor=none;fontStyle=1" vertex="1" parent="1">
          <mxGeometry x="345" y="1020" width="80" height="30" as="geometry" />
        </mxCell>
        <mxCell id="OBsJ4Kkz1t2WXACGnjXM-4" value="&lt;b&gt;com/&lt;/b&gt;" style="text;html=1;align=center;verticalAlign=middle;resizable=0;points=[];autosize=1;strokeColor=none;fillColor=none;" vertex="1" parent="1">
          <mxGeometry x="375" y="130" width="50" height="30" as="geometry" />
        </mxCell>
        <mxCell id="OBsJ4Kkz1t2WXACGnjXM-5" value="Menu.java&lt;div&gt;&lt;br&gt;&lt;/div&gt;" style="text;html=1;align=center;verticalAlign=middle;resizable=0;points=[];autosize=1;strokeColor=none;fillColor=none;" vertex="1" parent="1">
          <mxGeometry x="590" y="205" width="80" height="40" as="geometry" />
        </mxCell>
        <mxCell id="OBsJ4Kkz1t2WXACGnjXM-6" value="Main.java" style="text;html=1;align=center;verticalAlign=middle;resizable=0;points=[];autosize=1;strokeColor=none;fillColor=none;" vertex="1" parent="1">
          <mxGeometry x="595" y="230" width="70" height="30" as="geometry" />
        </mxCell>
        <mxCell id="OBsJ4Kkz1t2WXACGnjXM-8" value="" style="endArrow=none;html=1;rounded=0;" edge="1" parent="1">
          <mxGeometry width="50" height="50" relative="1" as="geometry">
            <mxPoint x="400" y="170" as="sourcePoint" />
            <mxPoint x="400" y="1010" as="targetPoint" />
          </mxGeometry>
        </mxCell>
        <mxCell id="OBsJ4Kkz1t2WXACGnjXM-9" value="" style="endArrow=none;html=1;rounded=0;" edge="1" parent="1">
          <mxGeometry width="50" height="50" relative="1" as="geometry">
            <mxPoint x="400" y="180" as="sourcePoint" />
            <mxPoint x="450" y="180" as="targetPoint" />
          </mxGeometry>
        </mxCell>
        <mxCell id="OBsJ4Kkz1t2WXACGnjXM-10" value="" style="endArrow=none;html=1;rounded=0;exitX=0.49;exitY=1.033;exitDx=0;exitDy=0;exitPerimeter=0;" edge="1" parent="1" source="6vk5qEpbiUs9_99Ks2rn-30">
          <mxGeometry width="50" height="50" relative="1" as="geometry">
            <mxPoint x="480" y="200" as="sourcePoint" />
            <mxPoint x="480" y="1000" as="targetPoint" />
          </mxGeometry>
        </mxCell>
        <mxCell id="OBsJ4Kkz1t2WXACGnjXM-11" value="" style="endArrow=none;html=1;rounded=0;entryX=0.071;entryY=0.667;entryDx=0;entryDy=0;entryPerimeter=0;" edge="1" parent="1" target="6vk5qEpbiUs9_99Ks2rn-33">
          <mxGeometry width="50" height="50" relative="1" as="geometry">
            <mxPoint x="480" y="200" as="sourcePoint" />
            <mxPoint x="550" y="220" as="targetPoint" />
          </mxGeometry>
        </mxCell>
        <mxCell id="OBsJ4Kkz1t2WXACGnjXM-12" value="" style="endArrow=none;html=1;rounded=0;entryX=0.083;entryY=0.633;entryDx=0;entryDy=0;entryPerimeter=0;" edge="1" parent="1" target="6vk5qEpbiUs9_99Ks2rn-41">
          <mxGeometry width="50" height="50" relative="1" as="geometry">
            <mxPoint x="480" y="290" as="sourcePoint" />
            <mxPoint x="610" y="200" as="targetPoint" />
          </mxGeometry>
        </mxCell>
        <mxCell id="OBsJ4Kkz1t2WXACGnjXM-13" value="" style="endArrow=none;html=1;rounded=0;" edge="1" parent="1">
          <mxGeometry width="50" height="50" relative="1" as="geometry">
            <mxPoint x="480" y="440" as="sourcePoint" />
            <mxPoint x="550" y="440" as="targetPoint" />
          </mxGeometry>
        </mxCell>
        <mxCell id="OBsJ4Kkz1t2WXACGnjXM-14" value="" style="endArrow=none;html=1;rounded=0;entryX=0.014;entryY=0.333;entryDx=0;entryDy=0;entryPerimeter=0;" edge="1" parent="1" target="6vk5qEpbiUs9_99Ks2rn-36">
          <mxGeometry width="50" height="50" relative="1" as="geometry">
            <mxPoint x="480" y="820" as="sourcePoint" />
            <mxPoint x="610" y="670" as="targetPoint" />
          </mxGeometry>
        </mxCell>
        <mxCell id="OBsJ4Kkz1t2WXACGnjXM-15" value="" style="endArrow=none;html=1;rounded=0;entryX=-0.014;entryY=0.667;entryDx=0;entryDy=0;entryPerimeter=0;" edge="1" parent="1" target="6vk5qEpbiUs9_99Ks2rn-49">
          <mxGeometry width="50" height="50" relative="1" as="geometry">
            <mxPoint x="480" y="960" as="sourcePoint" />
            <mxPoint x="610" y="900" as="targetPoint" />
          </mxGeometry>
        </mxCell>
        <mxCell id="OBsJ4Kkz1t2WXACGnjXM-16" value="#entidades + builder&lt;div&gt;&lt;br&gt;&lt;/div&gt;" style="text;html=1;align=center;verticalAlign=middle;resizable=0;points=[];autosize=1;strokeColor=none;fillColor=none;" vertex="1" parent="1">
          <mxGeometry x="789" y="340" width="130" height="40" as="geometry" />
        </mxCell>
        <mxCell id="OBsJ4Kkz1t2WXACGnjXM-17" value="&lt;span style=&quot;white-space: pre;&quot;&gt;&#x9;&lt;/span&gt;&lt;span style=&quot;white-space: pre;&quot;&gt;&#x9;&lt;/span&gt;&lt;span style=&quot;white-space: pre;&quot;&gt;&#x9;&lt;/span&gt;&lt;span style=&quot;white-space: pre;&quot;&gt;&#x9;&lt;/span&gt;&amp;nbsp; &amp;nbsp; &amp;nbsp; &amp;nbsp; &amp;nbsp; &amp;nbsp; &amp;nbsp; &amp;nbsp; &amp;nbsp; &amp;nbsp; &amp;nbsp; &amp;nbsp; &amp;nbsp; &amp;nbsp; &amp;nbsp; &amp;nbsp; &amp;nbsp; &amp;nbsp; &amp;nbsp; &amp;nbsp; &amp;nbsp; &amp;nbsp; &amp;nbsp; #acceso a BD (DAO/DTO) /conecciones a BD/interfaces" style="text;html=1;align=center;verticalAlign=middle;resizable=0;points=[];autosize=1;strokeColor=none;fillColor=none;" vertex="1" parent="1">
          <mxGeometry x="665" y="600" width="580" height="30" as="geometry" />
        </mxCell>
        <mxCell id="OBsJ4Kkz1t2WXACGnjXM-18" value="#lógica de negocio -&amp;gt;handlers" style="text;html=1;align=center;verticalAlign=middle;resizable=0;points=[];autosize=1;strokeColor=none;fillColor=none;" vertex="1" parent="1">
          <mxGeometry x="791" y="818" width="180" height="30" as="geometry" />
        </mxCell>
        <mxCell id="OBsJ4Kkz1t2WXACGnjXM-19" value="&lt;span style=&quot;white-space: pre;&quot;&gt;&#x9;&lt;/span&gt;&lt;span style=&quot;white-space: pre;&quot;&gt;&#x9;&lt;/span&gt;&lt;span style=&quot;white-space: pre;&quot;&gt;&#x9;&lt;/span&gt;&lt;span style=&quot;white-space: pre;&quot;&gt;&#x9;&lt;/span&gt;&amp;nbsp;#implementaciones observer" style="text;html=1;align=center;verticalAlign=middle;resizable=0;points=[];autosize=1;strokeColor=none;fillColor=none;" vertex="1" parent="1">
          <mxGeometry x="681" y="940" width="290" height="30" as="geometry" />
        </mxCell>
        <mxCell id="OBsJ4Kkz1t2WXACGnjXM-20" value="#scripts SQL, confirguraciones ej= scripts para DAO" style="text;html=1;align=center;verticalAlign=middle;resizable=0;points=[];autosize=1;strokeColor=none;fillColor=none;" vertex="1" parent="1">
          <mxGeometry x="790" y="1018" width="300" height="30" as="geometry" />
        </mxCell>
        <mxCell id="OBsJ4Kkz1t2WXACGnjXM-21" value="&lt;b&gt;mysql/&lt;/b&gt;" style="text;html=1;align=center;verticalAlign=middle;resizable=0;points=[];autosize=1;strokeColor=none;fillColor=none;" vertex="1" parent="1">
          <mxGeometry x="590" y="438" width="60" height="30" as="geometry" />
        </mxCell>
        <mxCell id="OBsJ4Kkz1t2WXACGnjXM-22" value="&amp;nbsp;mongoDb/" style="text;html=1;align=center;verticalAlign=middle;resizable=0;points=[];autosize=1;strokeColor=none;fillColor=none;fontStyle=1" vertex="1" parent="1">
          <mxGeometry x="589" y="760" width="80" height="30" as="geometry" />
        </mxCell>
        <mxCell id="OBsJ4Kkz1t2WXACGnjXM-23" value="&lt;b&gt;interfaces/&lt;/b&gt;" style="text;html=1;align=center;verticalAlign=middle;resizable=0;points=[];autosize=1;strokeColor=none;fillColor=none;" vertex="1" parent="1">
          <mxGeometry x="639" y="780" width="80" height="30" as="geometry" />
        </mxCell>
        <mxCell id="OBsJ4Kkz1t2WXACGnjXM-24" value="interfaces/" style="text;html=1;align=center;verticalAlign=middle;resizable=0;points=[];autosize=1;strokeColor=none;fillColor=none;fontStyle=1" vertex="1" parent="1">
          <mxGeometry x="631" y="468" width="80" height="30" as="geometry" />
        </mxCell>
        <mxCell id="OBsJ4Kkz1t2WXACGnjXM-25" value="exceptions/" style="text;html=1;align=center;verticalAlign=middle;resizable=0;points=[];autosize=1;strokeColor=none;fillColor=none;fontStyle=1" vertex="1" parent="1">
          <mxGeometry x="549" y="978" width="80" height="30" as="geometry" />
        </mxCell>
        <mxCell id="OBsJ4Kkz1t2WXACGnjXM-26" value="" style="endArrow=none;html=1;rounded=0;entryX=0.025;entryY=0.7;entryDx=0;entryDy=0;entryPerimeter=0;" edge="1" parent="1" target="OBsJ4Kkz1t2WXACGnjXM-25">
          <mxGeometry width="50" height="50" relative="1" as="geometry">
            <mxPoint x="480" y="1000" as="sourcePoint" />
            <mxPoint x="680" y="900" as="targetPoint" />
          </mxGeometry>
        </mxCell>
        <mxCell id="OBsJ4Kkz1t2WXACGnjXM-27" value="&lt;span style=&quot;white-space: pre;&quot;&gt;&#x9;&lt;/span&gt;&lt;span style=&quot;white-space: pre;&quot;&gt;&#x9;&lt;/span&gt;&lt;span style=&quot;white-space: pre;&quot;&gt;&#x9;&lt;/span&gt;&lt;span style=&quot;white-space: pre;&quot;&gt;&#x9;&lt;/span&gt;&lt;span style=&quot;white-space: pre;&quot;&gt;&#x9;&lt;/span&gt;&lt;span style=&quot;white-space: pre;&quot;&gt;&#x9;&lt;/span&gt;&lt;span style=&quot;white-space: pre;&quot;&gt;&#x9;&lt;/span&gt;#implementaciones de exceptions propias" style="text;html=1;align=center;verticalAlign=middle;resizable=0;points=[];autosize=1;strokeColor=none;fillColor=none;" vertex="1" parent="1">
          <mxGeometry x="605" y="978" width="430" height="30" as="geometry" />
        </mxCell>
      </root>
    </mxGraphModel>
  </diagram>
</mxfile>
